<mxfile host="65bd71144e">
    <diagram id="MyS5UbTB8MWv5y0TDb5n" name="Page-1">
        <mxGraphModel dx="6150" dy="4955" grid="1" gridSize="10" guides="1" tooltips="1" connect="1" arrows="1" fold="1" page="1" pageScale="1" pageWidth="3300" pageHeight="2339" math="0" shadow="0">
            <root>
                <mxCell id="0"/>
                <mxCell id="1" parent="0"/>
            </root>
        </mxGraphModel>
    </diagram>
</mxfile>